<svg width="58" height="51" viewBox="0 0 58 51" fill="none" xmlns="http://www.w3.org/2000/svg">
<rect width="56.71" height="50" transform="translate(0.701965 0.195312)" fill="#FFF0F2"/>
<mask id="mask0_1326_15991" style="mask-type:alpha" maskUnits="userSpaceOnUse" x="13" y="9" width="32" height="32">
<rect x="13" y="9" width="32" height="32" fill="#D9D9D9"/>
</mask>
<g mask="url(#mask0_1326_15991)">
<path d="M32.8 32.1333L30.3333 31.0667C30.5777 30.4889 30.7833 29.8833 30.95 29.25C31.1166 28.6167 31.2555 27.9778 31.3666 27.3333L33.6333 29.6C33.5222 30.0444 33.4 30.4778 33.2666 30.9C33.1333 31.3222 32.9777 31.7333 32.8 32.1333ZM28.4666 30.3333L26 29.3333C26.3111 28.6667 26.5333 27.9722 26.6666 27.25C26.8 26.5278 26.8666 25.7778 26.8666 25C26.8666 24.5778 26.85 24.1667 26.8166 23.7667C26.7833 23.3667 26.7222 22.9778 26.6333 22.6L29.5333 25.5C29.4889 26.3444 29.3833 27.1667 29.2166 27.9667C29.05 28.7667 28.8 29.5555 28.4666 30.3333ZM24.2 28.5333L21.7333 27.5333C21.8666 27.1333 21.9777 26.7222 22.0666 26.3C22.1555 25.8778 22.2 25.4444 22.2 25C22.2 24.5555 22.1555 24.1222 22.0666 23.7C21.9777 23.2778 21.8666 22.8667 21.7333 22.4667L24.2 21.4667C24.4 22 24.5611 22.5611 24.6833 23.15C24.8055 23.7389 24.8666 24.3555 24.8666 25C24.8666 25.6444 24.8055 26.2611 24.6833 26.85C24.5611 27.4389 24.4 28 24.2 28.5333ZM34.1666 26.3333L31.4666 23.6333C31.4 22.7889 31.2722 21.9778 31.0833 21.2C30.8944 20.4222 30.6444 19.6667 30.3333 18.9333L32.8 17.8667C33.2666 18.9778 33.6166 20.1278 33.85 21.3167C34.0833 22.5055 34.2 23.7333 34.2 25V25.6667C34.2 25.8889 34.1889 26.1111 34.1666 26.3333ZM29 21.1667L27.8333 20L28.5333 19.7C28.6444 19.9444 28.7333 20.1889 28.8 20.4333L29 21.1667ZM40.3 40.0667L36.3666 36.1333C35.3 36.8444 34.15 37.3889 32.9166 37.7667C31.6833 38.1444 30.3777 38.3333 29 38.3333C27.1555 38.3333 25.4222 37.9833 23.8 37.2833C22.1777 36.5833 20.7666 35.6333 19.5666 34.4333C18.3666 33.2333 17.4166 31.8222 16.7166 30.2C16.0166 28.5778 15.6666 26.8444 15.6666 25C15.6666 23.6222 15.8555 22.3167 16.2333 21.0833C16.6111 19.85 17.1555 18.7 17.8666 17.6333L13.9 13.6667L15.8 11.7667L42.2 38.1667L40.3 40.0667ZM29 35.6667C30 35.6667 30.95 35.5333 31.85 35.2667C32.75 35 33.6 34.6333 34.4 34.1667L19.8333 19.6C19.3666 20.4 19 21.25 18.7333 22.15C18.4666 23.05 18.3333 24 18.3333 25C18.3333 27.9555 19.3722 30.4722 21.45 32.55C23.5277 34.6278 26.0444 35.6667 29 35.6667ZM40.1666 32.3333L38.2 30.3667C38.6666 29.5889 39.0277 28.75 39.2833 27.85C39.5389 26.95 39.6666 26 39.6666 25C39.6666 22.0444 38.6277 19.5278 36.55 17.45C34.4722 15.3722 31.9555 14.3333 29 14.3333C28 14.3333 27.05 14.4611 26.15 14.7167C25.25 14.9722 24.4111 15.3333 23.6333 15.8L21.6666 13.8333C22.7333 13.1444 23.8833 12.6111 25.1166 12.2333C26.35 11.8555 27.6444 11.6667 29 11.6667C30.8444 11.6667 32.5777 12.0167 34.2 12.7167C35.8222 13.4167 37.2333 14.3667 38.4333 15.5667C39.6333 16.7667 40.5833 18.1778 41.2833 19.8C41.9833 21.4222 42.3333 23.1555 42.3333 25C42.3333 26.3555 42.1444 27.65 41.7666 28.8833C41.3889 30.1167 40.8555 31.2667 40.1666 32.3333Z" fill="#E34444"/>
</g>
</svg>
