<svg width="57" height="51" viewBox="0 0 57 51" fill="none" xmlns="http://www.w3.org/2000/svg">
<rect width="56.708" height="50" transform="translate(0.0420532 0.5)" fill="#E1F7E3"/>
<mask id="mask0_1326_15999" style="mask-type:alpha" maskUnits="userSpaceOnUse" x="12" y="9" width="32" height="33">
<rect x="12" y="9.5" width="32" height="32" fill="#D9D9D9"/>
</mask>
<g mask="url(#mask0_1326_15999)">
<path d="M23.2 29.0333C23.4 28.5 23.5611 27.9389 23.6834 27.35C23.8056 26.7611 23.8667 26.1444 23.8667 25.5C23.8667 24.8555 23.8056 24.2389 23.6834 23.65C23.5611 23.0611 23.4 22.5 23.2 21.9667L20.7334 22.9667C20.8667 23.3667 20.9778 23.7778 21.0667 24.2C21.1556 24.6222 21.2 25.0555 21.2 25.5C21.2 25.9444 21.1556 26.3778 21.0667 26.8C20.9778 27.2222 20.8667 27.6333 20.7334 28.0333L23.2 29.0333ZM27.4667 30.8333C27.8445 29.9889 28.1167 29.1222 28.2834 28.2333C28.45 27.3444 28.5334 26.4333 28.5334 25.5C28.5334 24.5667 28.45 23.6555 28.2834 22.7667C28.1167 21.8778 27.8445 21.0111 27.4667 20.1667L25 21.1667C25.3111 21.8333 25.5334 22.5278 25.6667 23.25C25.8 23.9722 25.8667 24.7222 25.8667 25.5C25.8667 26.2778 25.8 27.0278 25.6667 27.75C25.5334 28.4722 25.3111 29.1667 25 29.8333L27.4667 30.8333ZM31.8 32.6333C32.2667 31.5222 32.6167 30.3722 32.85 29.1833C33.0834 27.9944 33.2 26.7667 33.2 25.5C33.2 24.2333 33.0834 23.0055 32.85 21.8167C32.6167 20.6278 32.2667 19.4778 31.8 18.3667L29.3334 19.4333C29.7334 20.3667 30.0334 21.3444 30.2334 22.3667C30.4334 23.3889 30.5334 24.4333 30.5334 25.5C30.5334 26.5667 30.4334 27.6111 30.2334 28.6333C30.0334 29.6555 29.7334 30.6333 29.3334 31.5667L31.8 32.6333ZM28 38.8333C26.1556 38.8333 24.4222 38.4833 22.8 37.7833C21.1778 37.0833 19.7667 36.1333 18.5667 34.9333C17.3667 33.7333 16.4167 32.3222 15.7167 30.7C15.0167 29.0778 14.6667 27.3444 14.6667 25.5C14.6667 23.6555 15.0167 21.9222 15.7167 20.3C16.4167 18.6778 17.3667 17.2667 18.5667 16.0667C19.7667 14.8667 21.1778 13.9167 22.8 13.2167C24.4222 12.5167 26.1556 12.1667 28 12.1667C29.8445 12.1667 31.5778 12.5167 33.2 13.2167C34.8222 13.9167 36.2334 14.8667 37.4334 16.0667C38.6334 17.2667 39.5834 18.6778 40.2834 20.3C40.9834 21.9222 41.3334 23.6555 41.3334 25.5C41.3334 27.3444 40.9834 29.0778 40.2834 30.7C39.5834 32.3222 38.6334 33.7333 37.4334 34.9333C36.2334 36.1333 34.8222 37.0833 33.2 37.7833C31.5778 38.4833 29.8445 38.8333 28 38.8333ZM28 36.1667C30.9778 36.1667 33.5 35.1333 35.5667 33.0667C37.6334 31 38.6667 28.4778 38.6667 25.5C38.6667 22.5222 37.6334 20 35.5667 17.9333C33.5 15.8667 30.9778 14.8333 28 14.8333C25.0222 14.8333 22.5 15.8667 20.4334 17.9333C18.3667 20 17.3334 22.5222 17.3334 25.5C17.3334 28.4778 18.3667 31 20.4334 33.0667C22.5 35.1333 25.0222 36.1667 28 36.1667Z" fill="#23BD33"/>
</g>
</svg>
