<svg width="57" height="47" viewBox="0 0 57 47" fill="none" xmlns="http://www.w3.org/2000/svg">
<rect width="56.71" height="46.0938" transform="translate(0.17627 0.53125)" fill="#F5F7FA"/>
<mask id="mask0_1326_16015" style="mask-type:alpha" maskUnits="userSpaceOnUse" x="12" y="9" width="33" height="33">
<rect x="12.1136" y="9.53125" width="32" height="32" fill="#D9D9D9"/>
</mask>
<g mask="url(#mask0_1326_16015)">
<path d="M13.447 36.9427V31.526C13.447 30.7587 13.7081 30.1154 14.2304 29.5963C14.7526 29.0772 15.3804 28.8177 16.1137 28.8177H20.4804C20.9248 28.8177 21.347 28.9305 21.747 29.1562C22.147 29.3819 22.4692 29.6866 22.7137 30.0703C23.3581 30.9505 24.1526 31.6389 25.097 32.1354C26.0415 32.6319 27.047 32.8802 28.1137 32.8802C29.2026 32.8802 30.2192 32.6319 31.1637 32.1354C32.1081 31.6389 32.8915 30.9505 33.5137 30.0703C33.8026 29.6866 34.1415 29.3819 34.5304 29.1562C34.9192 28.9305 35.3248 28.8177 35.747 28.8177H40.1137C40.8692 28.8177 41.5026 29.0772 42.0137 29.5963C42.5248 30.1154 42.7804 30.7587 42.7804 31.526V36.9427H33.447V33.862C32.6692 34.4262 31.8304 34.855 30.9304 35.1484C30.0304 35.4418 29.0915 35.5885 28.1137 35.5885C27.1581 35.5885 26.2248 35.4362 25.3137 35.1315C24.4026 34.8268 23.5581 34.3923 22.7804 33.8281V36.9427H13.447ZM28.1137 31.526C27.2692 31.526 26.4692 31.3285 25.7137 30.9336C24.9581 30.5386 24.3248 29.9913 23.8137 29.2917C23.4359 28.7274 22.9637 28.2817 22.397 27.9544C21.8304 27.6272 21.2137 27.4635 20.547 27.4635C21.0359 26.6285 22.0692 25.9683 23.647 25.4831C25.2248 24.9978 26.7137 24.7552 28.1137 24.7552C29.5137 24.7552 31.0026 24.9978 32.5804 25.4831C34.1581 25.9683 35.1915 26.6285 35.6804 27.4635C35.0359 27.4635 34.4248 27.6272 33.847 27.9544C33.2692 28.2817 32.7915 28.7274 32.4137 29.2917C31.9248 30.0139 31.3026 30.5668 30.547 30.9505C29.7915 31.3342 28.9804 31.526 28.1137 31.526ZM17.447 27.4635C16.3359 27.4635 15.3915 27.0686 14.6137 26.2786C13.8359 25.4887 13.447 24.5295 13.447 23.401C13.447 22.25 13.8359 21.2851 14.6137 20.5065C15.3915 19.7279 16.3359 19.3385 17.447 19.3385C18.5804 19.3385 19.5304 19.7279 20.297 20.5065C21.0637 21.2851 21.447 22.25 21.447 23.401C21.447 24.5295 21.0637 25.4887 20.297 26.2786C19.5304 27.0686 18.5804 27.4635 17.447 27.4635ZM38.7804 27.4635C37.6692 27.4635 36.7248 27.0686 35.947 26.2786C35.1692 25.4887 34.7804 24.5295 34.7804 23.401C34.7804 22.25 35.1692 21.2851 35.947 20.5065C36.7248 19.7279 37.6692 19.3385 38.7804 19.3385C39.9137 19.3385 40.8637 19.7279 41.6304 20.5065C42.397 21.2851 42.7804 22.25 42.7804 23.401C42.7804 24.5295 42.397 25.4887 41.6304 26.2786C40.8637 27.0686 39.9137 27.4635 38.7804 27.4635ZM28.1137 23.401C27.0026 23.401 26.0581 23.0061 25.2804 22.2161C24.5026 21.4262 24.1137 20.467 24.1137 19.3385C24.1137 18.1875 24.5026 17.2226 25.2804 16.444C26.0581 15.6654 27.0026 15.276 28.1137 15.276C29.247 15.276 30.197 15.6654 30.9637 16.444C31.7304 17.2226 32.1137 18.1875 32.1137 19.3385C32.1137 20.467 31.7304 21.4262 30.9637 22.2161C30.197 23.0061 29.247 23.401 28.1137 23.401Z" fill="#1C1B1F"/>
</g>
</svg>
