<svg width="16" height="16" viewBox="0 0 16 16" fill="none" xmlns="http://www.w3.org/2000/svg">
<mask id="mask0_2485_304" style="mask-type:alpha" maskUnits="userSpaceOnUse" x="0" y="0" width="16" height="16">
<rect width="16" height="16" fill="#D9D9D9"/>
</mask>
<g mask="url(#mask0_2485_304)">
<path d="M3.90016 11.4002C4.46683 10.9668 5.10016 10.6252 5.80016 10.3752C6.50016 10.1252 7.2335 10.0002 8.00016 10.0002C8.76683 10.0002 9.50016 10.1252 10.2002 10.3752C10.9002 10.6252 11.5335 10.9668 12.1002 11.4002C12.4891 10.9446 12.7918 10.4279 13.0085 9.85016C13.2252 9.27238 13.3335 8.65572 13.3335 8.00016C13.3335 6.52238 12.8141 5.26405 11.7752 4.22516C10.7363 3.18627 9.47794 2.66683 8.00016 2.66683C6.52238 2.66683 5.26405 3.18627 4.22516 4.22516C3.18627 5.26405 2.66683 6.52238 2.66683 8.00016C2.66683 8.65572 2.77516 9.27238 2.99183 9.85016C3.2085 10.4279 3.51127 10.9446 3.90016 11.4002ZM8.00016 8.66683C7.34461 8.66683 6.79183 8.44183 6.34183 7.99183C5.89183 7.54183 5.66683 6.98905 5.66683 6.3335C5.66683 5.67794 5.89183 5.12516 6.34183 4.67516C6.79183 4.22516 7.34461 4.00016 8.00016 4.00016C8.65572 4.00016 9.2085 4.22516 9.6585 4.67516C10.1085 5.12516 10.3335 5.67794 10.3335 6.3335C10.3335 6.98905 10.1085 7.54183 9.6585 7.99183C9.2085 8.44183 8.65572 8.66683 8.00016 8.66683ZM8.00016 14.6668C7.07794 14.6668 6.21127 14.4918 5.40016 14.1418C4.58905 13.7918 3.8835 13.3168 3.2835 12.7168C2.6835 12.1168 2.2085 11.4113 1.8585 10.6002C1.5085 9.78905 1.3335 8.92238 1.3335 8.00016C1.3335 7.07794 1.5085 6.21127 1.8585 5.40016C2.2085 4.58905 2.6835 3.8835 3.2835 3.2835C3.8835 2.6835 4.58905 2.2085 5.40016 1.8585C6.21127 1.5085 7.07794 1.3335 8.00016 1.3335C8.92238 1.3335 9.78905 1.5085 10.6002 1.8585C11.4113 2.2085 12.1168 2.6835 12.7168 3.2835C13.3168 3.8835 13.7918 4.58905 14.1418 5.40016C14.4918 6.21127 14.6668 7.07794 14.6668 8.00016C14.6668 8.92238 14.4918 9.78905 14.1418 10.6002C13.7918 11.4113 13.3168 12.1168 12.7168 12.7168C12.1168 13.3168 11.4113 13.7918 10.6002 14.1418C9.78905 14.4918 8.92238 14.6668 8.00016 14.6668ZM8.00016 13.3335C8.58905 13.3335 9.14461 13.2474 9.66683 13.0752C10.1891 12.9029 10.6668 12.6557 11.1002 12.3335C10.6668 12.0113 10.1891 11.7641 9.66683 11.5918C9.14461 11.4196 8.58905 11.3335 8.00016 11.3335C7.41127 11.3335 6.85572 11.4196 6.3335 11.5918C5.81127 11.7641 5.3335 12.0113 4.90016 12.3335C5.3335 12.6557 5.81127 12.9029 6.3335 13.0752C6.85572 13.2474 7.41127 13.3335 8.00016 13.3335ZM8.00016 7.3335C8.28905 7.3335 8.52794 7.23905 8.71683 7.05016C8.90572 6.86127 9.00016 6.62238 9.00016 6.3335C9.00016 6.04461 8.90572 5.80572 8.71683 5.61683C8.52794 5.42794 8.28905 5.3335 8.00016 5.3335C7.71127 5.3335 7.47238 5.42794 7.2835 5.61683C7.09461 5.80572 7.00016 6.04461 7.00016 6.3335C7.00016 6.62238 7.09461 6.86127 7.2835 7.05016C7.47238 7.23905 7.71127 7.3335 8.00016 7.3335Z" fill=" #0a0f29"/>
</g>
</svg>
