<svg width="16" height="16" viewBox="0 0 16 16" fill="none" xmlns="http://www.w3.org/2000/svg">
<path d="M9.62536 0C9.7495 3.81236e-06 9.87043 0.0384044 9.97075 0.109671C10.0711 0.180939 10.1456 0.281394 10.1836 0.396571L10.8285 2.34971C11.0994 2.47886 11.3586 2.624 11.606 2.78743L13.6653 2.35543C13.7867 2.33017 13.9132 2.34311 14.0266 2.3924C14.14 2.4417 14.2344 2.52479 14.2962 2.62971L15.9216 5.37143C15.9836 5.47629 16.0099 5.59766 15.9966 5.71802C15.9834 5.83839 15.9312 5.95153 15.8477 6.04114L14.4346 7.56114C14.4552 7.85261 14.4552 8.14511 14.4346 8.43657L15.8477 9.95886C15.9312 10.0485 15.9834 10.1616 15.9966 10.282C16.0099 10.4023 15.9836 10.5237 15.9216 10.6286L14.2962 13.3714C14.2342 13.4761 14.1397 13.559 14.0264 13.6081C13.913 13.6572 13.7866 13.6699 13.6653 13.6446L11.606 13.2126C11.3598 13.3749 11.0994 13.5211 10.8297 13.6503L10.1836 15.6034C10.1456 15.7186 10.0711 15.8191 9.97075 15.8903C9.87043 15.9616 9.7495 16 9.62536 16H6.37464C6.2505 16 6.12957 15.9616 6.02926 15.8903C5.92894 15.8191 5.85443 15.7186 5.81644 15.6034L5.17263 13.6514C4.90246 13.5227 4.64188 13.3757 4.39279 13.2114L2.3347 13.6446C2.21329 13.6698 2.08678 13.6569 1.9734 13.6076C1.86002 13.5583 1.76562 13.4752 1.70379 13.3703L0.0784365 10.6286C0.016371 10.5237 -0.00991803 10.4023 0.00336006 10.282C0.0166382 10.1616 0.0687972 10.0485 0.152316 9.95886L1.56542 8.43657C1.54495 8.14587 1.54495 7.85413 1.56542 7.56343L0.152316 6.04114C0.0687972 5.95153 0.0166382 5.83839 0.00336006 5.71802C-0.00991803 5.59766 0.016371 5.47629 0.0784365 5.37143L1.70379 2.62857C1.76579 2.52386 1.86026 2.441 1.97363 2.39192C2.087 2.34284 2.21341 2.33006 2.3347 2.35543L4.39279 2.78857C4.6414 2.62514 4.90174 2.47771 5.17263 2.34857L5.81761 0.396571C5.85548 0.281765 5.92964 0.181576 6.02948 0.110343C6.12932 0.0391102 6.24973 0.000486477 6.37347 0H9.62419H9.62536ZM9.19615 1.14286H6.80385L6.13776 3.16229L5.68862 3.376C5.46782 3.4813 5.25467 3.6012 5.05067 3.73486L4.63553 4.00914L2.50592 3.56114L1.30977 5.58171L2.76977 7.15657L2.73459 7.64114C2.71774 7.8801 2.71774 8.1199 2.73459 8.35886L2.76977 8.84343L1.30742 10.4183L2.50475 12.4389L4.63436 11.992L5.0495 12.2651C5.2535 12.3988 5.46664 12.5187 5.68744 12.624L6.13659 12.8377L6.80385 14.8571H9.1985L9.86693 12.8366L10.3149 12.624C10.5355 12.5189 10.7482 12.399 10.9517 12.2651L11.3656 11.992L13.4964 12.4389L14.6926 10.4183L13.2314 8.84343L13.2666 8.35886C13.2835 8.11952 13.2835 7.87934 13.2666 7.64L13.2314 7.15543L14.6938 5.58171L13.4964 3.56114L11.3656 4.00686L10.9517 3.73486C10.7483 3.60093 10.5355 3.48102 10.3149 3.376L9.86693 3.16343L9.19732 1.14286H9.19615ZM8 4.57143C8.93306 4.57143 9.8279 4.93265 10.4877 5.57563C11.1474 6.21862 11.5181 7.09069 11.5181 8C11.5181 8.90931 11.1474 9.78139 10.4877 10.4244C9.8279 11.0673 8.93306 11.4286 8 11.4286C7.06695 11.4286 6.17211 11.0673 5.51234 10.4244C4.85257 9.78139 4.48191 8.90931 4.48191 8C4.48191 7.09069 4.85257 6.21862 5.51234 5.57563C6.17211 4.93265 7.06695 4.57143 8 4.57143ZM8 5.71429C7.37796 5.71429 6.7814 5.9551 6.34156 6.38376C5.90171 6.81241 5.65461 7.39379 5.65461 8C5.65461 8.60621 5.90171 9.18759 6.34156 9.61624C6.7814 10.0449 7.37796 10.2857 8 10.2857C8.62204 10.2857 9.2186 10.0449 9.65844 9.61624C10.0983 9.18759 10.3454 8.60621 10.3454 8C10.3454 7.39379 10.0983 6.81241 9.65844 6.38376C9.2186 5.9551 8.62204 5.71429 8 5.71429Z" fill="#0A0F29"/>
</svg>
