<svg width="17" height="16" viewBox="0 0 17 16" fill="none" xmlns="http://www.w3.org/2000/svg">
<g clip-path="url(#clip0_2039_21145)">
<path d="M7.83398 2.6665H3.16732C2.8137 2.6665 2.47456 2.80698 2.22451 3.05703C1.97446 3.30708 1.83398 3.64622 1.83398 3.99984V13.3332C1.83398 13.6868 1.97446 14.0259 2.22451 14.276C2.47456 14.526 2.8137 14.6665 3.16732 14.6665H12.5007C12.8543 14.6665 13.1934 14.526 13.4435 14.276C13.6935 14.0259 13.834 13.6868 13.834 13.3332V8.6665" stroke="#0A0F29" stroke-width="2" stroke-linecap="round" stroke-linejoin="round"/>
<path d="M12.834 1.66665C13.0992 1.40144 13.4589 1.25244 13.834 1.25244C14.2091 1.25244 14.5688 1.40144 14.834 1.66665C15.0992 1.93187 15.2482 2.29158 15.2482 2.66665C15.2482 3.04173 15.0992 3.40144 14.834 3.66665L8.50065 9.99999L5.83398 10.6667L6.50065 7.99999L12.834 1.66665Z" stroke="#0A0F29" stroke-width="2" stroke-linecap="round" stroke-linejoin="round"/>
</g>
<defs>
<clipPath id="clip0_2039_21145">
<rect width="16" height="16" fill="white" transform="translate(0.5)"/>
</clipPath>
</defs>
</svg>
