<svg width="12" height="13" viewBox="0 0 12 13" fill="none" xmlns="http://www.w3.org/2000/svg">
<path d="M4.6665 7.33317C4.11095 7.33317 3.63873 7.13873 3.24984 6.74984C2.86095 6.36095 2.6665 5.88873 2.6665 5.33317C2.6665 5.08873 2.70539 4.85817 2.78317 4.6415C2.86095 4.42484 2.97761 4.22762 3.13317 4.04984C3.08873 3.93873 3.05539 3.82206 3.03317 3.69984C3.01095 3.57762 2.99984 3.45539 2.99984 3.33317C2.99984 2.91095 3.11373 2.53595 3.3415 2.20817C3.56928 1.88039 3.8665 1.63873 4.23317 1.48317C4.45539 1.22762 4.7165 1.02762 5.0165 0.883171C5.3165 0.738726 5.64428 0.666504 5.99984 0.666504C6.35539 0.666504 6.68317 0.738726 6.98317 0.883171C7.28317 1.02762 7.54428 1.22762 7.7665 1.48317C8.13317 1.63873 8.43039 1.88039 8.65817 2.20817C8.88595 2.53595 8.99984 2.91095 8.99984 3.33317C8.99984 3.45539 8.98873 3.57762 8.9665 3.69984C8.94428 3.82206 8.91095 3.93873 8.8665 4.04984C9.02206 4.22762 9.13873 4.42484 9.2165 4.6415C9.29428 4.85817 9.33317 5.08873 9.33317 5.33317C9.33317 5.88873 9.13873 6.36095 8.74984 6.74984C8.36095 7.13873 7.88873 7.33317 7.33317 7.33317H4.6665ZM4.6665 5.99984H7.33317C7.52206 5.99984 7.68039 5.93317 7.80817 5.79984C7.93595 5.6665 7.99984 5.51095 7.99984 5.33317C7.99984 5.25539 7.98595 5.18317 7.95817 5.1165C7.93039 5.04984 7.88873 4.98317 7.83317 4.9165C7.71095 4.77206 7.63039 4.63039 7.5915 4.4915C7.55261 4.35262 7.53317 4.22206 7.53317 4.09984C7.53317 3.92206 7.55539 3.76928 7.59984 3.6415C7.64428 3.51373 7.6665 3.41095 7.6665 3.33317C7.6665 3.19984 7.62761 3.07762 7.54984 2.9665C7.47206 2.85539 7.37206 2.77206 7.24984 2.7165C7.14984 2.67206 7.05817 2.62206 6.97484 2.5665C6.8915 2.51095 6.8165 2.43873 6.74984 2.34984C6.69428 2.28317 6.60261 2.20817 6.47484 2.12484C6.34706 2.0415 6.18873 1.99984 5.99984 1.99984C5.81095 1.99984 5.65261 2.04428 5.52484 2.13317C5.39706 2.22206 5.30539 2.29984 5.24984 2.3665C5.18317 2.44428 5.10817 2.51095 5.02484 2.5665C4.9415 2.62206 4.84984 2.67206 4.74984 2.7165C4.62761 2.77206 4.52761 2.85539 4.44984 2.9665C4.37206 3.07762 4.33317 3.19984 4.33317 3.33317C4.33317 3.41095 4.35539 3.51373 4.39984 3.6415C4.44428 3.76928 4.4665 3.92206 4.4665 4.09984C4.4665 4.22206 4.44706 4.35262 4.40817 4.4915C4.36928 4.63039 4.28873 4.77206 4.1665 4.9165C4.11095 4.98317 4.06928 5.04984 4.0415 5.1165C4.01373 5.18317 3.99984 5.25539 3.99984 5.33317C3.99984 5.51095 4.06373 5.6665 4.1915 5.79984C4.31928 5.93317 4.47761 5.99984 4.6665 5.99984ZM0.666504 12.6665V10.7998C0.666504 10.4221 0.763726 10.0748 0.958171 9.75817C1.15262 9.4415 1.41095 9.19984 1.73317 9.03317C2.42206 8.68873 3.12206 8.43039 3.83317 8.25817C4.54428 8.08595 5.2665 7.99984 5.99984 7.99984C6.73317 7.99984 7.45539 8.08595 8.1665 8.25817C8.87761 8.43039 9.57761 8.68873 10.2665 9.03317C10.5887 9.19984 10.8471 9.4415 11.0415 9.75817C11.2359 10.0748 11.3332 10.4221 11.3332 10.7998V12.6665H0.666504ZM1.99984 11.3332H9.99984V10.7998C9.99984 10.6776 9.96928 10.5665 9.90817 10.4665C9.84706 10.3665 9.7665 10.2887 9.6665 10.2332C9.0665 9.93317 8.46095 9.70817 7.84984 9.55817C7.23873 9.40817 6.62206 9.33317 5.99984 9.33317C5.37761 9.33317 4.76095 9.40817 4.14984 9.55817C3.53873 9.70817 2.93317 9.93317 2.33317 10.2332C2.23317 10.2887 2.15261 10.3665 2.0915 10.4665C2.03039 10.5665 1.99984 10.6776 1.99984 10.7998V11.3332Z" fill="#0A0F29"/>
</svg>
