<svg width="86" height="68" viewBox="0 0 86 68" fill="none" xmlns="http://www.w3.org/2000/svg">
<path d="M32.6875 58.9993L76.8542 14.8327L70.9167 8.99935L32.5833 47.2285L14.9792 29.5202L9.04167 35.4577L32.6875 58.9993ZM26.75 64.8327L3.20833 41.291C2.375 40.4577 1.76736 39.5375 1.38542 38.5306C1.00347 37.5237 0.8125 36.4993 0.8125 35.4577C0.8125 34.416 1.00347 33.3743 1.38542 32.3327C1.76736 31.291 2.375 30.3535 3.20833 29.5202L9.04167 23.6868C9.875 22.8535 10.7951 22.2285 11.8021 21.8118C12.809 21.3952 13.8681 21.1868 14.9792 21.1868C16.0903 21.1868 17.1493 21.3952 18.1562 21.8118C19.1632 22.2285 20.0833 22.8535 20.9167 23.6868L32.6875 35.4577L64.9792 3.06185C65.7431 2.22852 66.6458 1.62088 67.6875 1.23893C68.7292 0.856988 69.7708 0.666016 70.8125 0.666016C71.8542 0.666016 72.8958 0.856988 73.9375 1.23893C74.9792 1.62088 75.9167 2.19379 76.75 2.95768L82.6875 8.79102C83.5208 9.62435 84.1458 10.5445 84.5625 11.5514C84.9792 12.5584 85.1875 13.6174 85.1875 14.7285C85.1875 15.8396 84.9965 16.8987 84.6146 17.9056C84.2326 18.9125 83.625 19.8327 82.7917 20.666L38.625 64.8327C37.7917 65.666 36.8542 66.291 35.8125 66.7077C34.7708 67.1244 33.7292 67.3327 32.6875 67.3327C31.6458 67.3327 30.6042 67.1244 29.5625 66.7077C28.5208 66.291 27.5833 65.666 26.75 64.8327Z" fill="white"/>
</svg>
