<svg width="16" height="16" viewBox="0 0 16 16" fill="none" xmlns="http://www.w3.org/2000/svg">
<mask id="mask0_1620_351" style="mask-type:alpha" maskUnits="userSpaceOnUse" x="0" y="0" width="16" height="16">
<rect width="16" height="16" fill="#D9D9D9"/>
</mask>
<g mask="url(#mask0_1620_351)">
<path d="M6.66663 9.33335C6.11107 9.33335 5.63885 9.13891 5.24996 8.75002C4.86107 8.36113 4.66663 7.88891 4.66663 7.33335C4.66663 7.08891 4.70551 6.85835 4.78329 6.64169C4.86107 6.42502 4.97774 6.2278 5.13329 6.05002C5.08885 5.93891 5.05551 5.82224 5.03329 5.70002C5.01107 5.5778 4.99996 5.45558 4.99996 5.33335C4.99996 4.91113 5.11385 4.53613 5.34163 4.20835C5.5694 3.88058 5.86663 3.63891 6.23329 3.48335C6.45551 3.2278 6.71663 3.0278 7.01663 2.88335C7.31663 2.73891 7.6444 2.66669 7.99996 2.66669C8.35551 2.66669 8.68329 2.73891 8.98329 2.88335C9.28329 3.0278 9.5444 3.2278 9.76663 3.48335C10.1333 3.63891 10.4305 3.88058 10.6583 4.20835C10.8861 4.53613 11 4.91113 11 5.33335C11 5.45558 10.9888 5.5778 10.9666 5.70002C10.9444 5.82224 10.9111 5.93891 10.8666 6.05002C11.0222 6.2278 11.1388 6.42502 11.2166 6.64169C11.2944 6.85835 11.3333 7.08891 11.3333 7.33335C11.3333 7.88891 11.1388 8.36113 10.75 8.75002C10.3611 9.13891 9.88885 9.33335 9.33329 9.33335H6.66663ZM6.66663 8.00002H9.33329C9.52218 8.00002 9.68051 7.93335 9.80829 7.80002C9.93607 7.66669 9.99996 7.51113 9.99996 7.33335C9.99996 7.25558 9.98607 7.18335 9.95829 7.11669C9.93051 7.05002 9.88885 6.98335 9.83329 6.91669C9.71107 6.77224 9.63051 6.63058 9.59163 6.49169C9.55274 6.3528 9.53329 6.22224 9.53329 6.10002C9.53329 5.92224 9.55551 5.76946 9.59996 5.64169C9.6444 5.51391 9.66663 5.41113 9.66663 5.33335C9.66663 5.20002 9.62774 5.0778 9.54996 4.96669C9.47218 4.85558 9.37218 4.77224 9.24996 4.71669C9.14996 4.67224 9.05829 4.62224 8.97496 4.56669C8.89163 4.51113 8.81663 4.43891 8.74996 4.35002C8.6944 4.28335 8.60274 4.20835 8.47496 4.12502C8.34718 4.04169 8.18885 4.00002 7.99996 4.00002C7.81107 4.00002 7.65274 4.04446 7.52496 4.13335C7.39718 4.22224 7.30551 4.30002 7.24996 4.36669C7.18329 4.44446 7.10829 4.51113 7.02496 4.56669C6.94163 4.62224 6.84996 4.67224 6.74996 4.71669C6.62774 4.77224 6.52774 4.85558 6.44996 4.96669C6.37218 5.0778 6.33329 5.20002 6.33329 5.33335C6.33329 5.41113 6.35551 5.51391 6.39996 5.64169C6.4444 5.76946 6.46663 5.92224 6.46663 6.10002C6.46663 6.22224 6.44718 6.3528 6.40829 6.49169C6.3694 6.63058 6.28885 6.77224 6.16663 6.91669C6.11107 6.98335 6.0694 7.05002 6.04163 7.11669C6.01385 7.18335 5.99996 7.25558 5.99996 7.33335C5.99996 7.51113 6.06385 7.66669 6.19163 7.80002C6.3194 7.93335 6.47774 8.00002 6.66663 8.00002ZM2.66663 14.6667V12.8C2.66663 12.4222 2.76385 12.075 2.95829 11.7584C3.15274 11.4417 3.41107 11.2 3.73329 11.0334C4.42218 10.6889 5.12218 10.4306 5.83329 10.2584C6.5444 10.0861 7.26663 10 7.99996 10C8.73329 10 9.45551 10.0861 10.1666 10.2584C10.8777 10.4306 11.5777 10.6889 12.2666 11.0334C12.5888 11.2 12.8472 11.4417 13.0416 11.7584C13.2361 12.075 13.3333 12.4222 13.3333 12.8V14.6667H2.66663ZM3.99996 13.3334H12V12.8C12 12.6778 11.9694 12.5667 11.9083 12.4667C11.8472 12.3667 11.7666 12.2889 11.6666 12.2334C11.0666 11.9334 10.4611 11.7084 9.84996 11.5584C9.23885 11.4084 8.62218 11.3334 7.99996 11.3334C7.37774 11.3334 6.76107 11.4084 6.14996 11.5584C5.53885 11.7084 4.93329 11.9334 4.33329 12.2334C4.23329 12.2889 4.15274 12.3667 4.09163 12.4667C4.03051 12.5667 3.99996 12.6778 3.99996 12.8V13.3334Z" fill="#0A0F29"/>
</g>
</svg>
