<svg width="224" height="224" viewBox="0 0 224 224" fill="none" xmlns="http://www.w3.org/2000/svg">
<path d="M8.96 0H0V8.96H8.96V0Z" fill="black"/>
<path d="M17.92 0H8.96V8.96H17.92V0Z" fill="black"/>
<path d="M26.88 0H17.92V8.96H26.88V0Z" fill="black"/>
<path d="M35.84 0H26.88V8.96H35.84V0Z" fill="black"/>
<path d="M44.8 0H35.84V8.96H44.8V0Z" fill="black"/>
<path d="M53.76 0H44.8V8.96H53.76V0Z" fill="black"/>
<path d="M62.72 0H53.76V8.96H62.72V0Z" fill="black"/>
<path d="M80.64 0H71.68V8.96H80.64V0Z" fill="black"/>
<path d="M125.44 0H116.48V8.96H125.44V0Z" fill="black"/>
<path d="M134.4 0H125.44V8.96H134.4V0Z" fill="black"/>
<path d="M143.36 0H134.4V8.96H143.36V0Z" fill="black"/>
<path d="M152.32 0H143.36V8.96H152.32V0Z" fill="black"/>
<path d="M170.24 0H161.28V8.96H170.24V0Z" fill="black"/>
<path d="M179.2 0H170.24V8.96H179.2V0Z" fill="black"/>
<path d="M188.16 0H179.2V8.96H188.16V0Z" fill="black"/>
<path d="M197.12 0H188.16V8.96H197.12V0Z" fill="black"/>
<path d="M206.08 0H197.12V8.96H206.08V0Z" fill="black"/>
<path d="M215.04 0H206.08V8.96H215.04V0Z" fill="black"/>
<path d="M224 0H215.04V8.96H224V0Z" fill="black"/>
<path d="M8.96 8.96H0V17.92H8.96V8.96Z" fill="black"/>
<path d="M62.72 8.96H53.76L53.76 17.92H62.72V8.96Z" fill="black"/>
<path d="M89.6 8.96H80.64V17.92H89.6V8.96Z" fill="black"/>
<path d="M98.56 8.96H89.6V17.92H98.56V8.96Z" fill="black"/>
<path d="M107.52 8.96H98.56V17.92H107.52V8.96Z" fill="black"/>
<path d="M170.24 8.96H161.28V17.92H170.24V8.96Z" fill="black"/>
<path d="M224 8.96H215.04V17.92H224V8.96Z" fill="black"/>
<path d="M8.96 17.92H0V26.88H8.96V17.92Z" fill="black"/>
<path d="M26.88 17.92H17.92V26.88H26.88V17.92Z" fill="black"/>
<path d="M35.84 17.92H26.88V26.88H35.84V17.92Z" fill="black"/>
<path d="M44.8 17.92H35.84V26.88H44.8V17.92Z" fill="black"/>
<path d="M62.72 17.92H53.76V26.88H62.72V17.92Z" fill="black"/>
<path d="M89.6 17.92H80.64V26.88H89.6V17.92Z" fill="black"/>
<path d="M98.56 17.92H89.6V26.88H98.56V17.92Z" fill="black"/>
<path d="M116.48 17.92H107.52V26.88H116.48V17.92Z" fill="black"/>
<path d="M134.4 17.92H125.44V26.88H134.4V17.92Z" fill="black"/>
<path d="M143.36 17.92H134.4V26.88H143.36V17.92Z" fill="black"/>
<path d="M152.32 17.92H143.36V26.88H152.32V17.92Z" fill="black"/>
<path d="M170.24 17.92H161.28V26.88H170.24V17.92Z" fill="black"/>
<path d="M188.16 17.92H179.2V26.88H188.16V17.92Z" fill="black"/>
<path d="M197.12 17.92H188.16V26.88H197.12V17.92Z" fill="black"/>
<path d="M206.08 17.92H197.12V26.88H206.08V17.92Z" fill="black"/>
<path d="M224 17.92H215.04V26.88H224V17.92Z" fill="black"/>
<path d="M8.96 26.88H0V35.84H8.96V26.88Z" fill="black"/>
<path d="M26.88 26.88H17.92V35.84H26.88V26.88Z" fill="black"/>
<path d="M35.84 26.88H26.88V35.84H35.84V26.88Z" fill="black"/>
<path d="M44.8 26.88H35.84V35.84H44.8V26.88Z" fill="black"/>
<path d="M62.72 26.88H53.76V35.84H62.72V26.88Z" fill="black"/>
<path d="M98.56 26.88H89.6V35.84H98.56V26.88Z" fill="black"/>
<path d="M107.52 26.88H98.56V35.84H107.52V26.88Z" fill="black"/>
<path d="M116.48 26.88H107.52V35.84H116.48V26.88Z" fill="black"/>
<path d="M125.44 26.88H116.48V35.84H125.44V26.88Z" fill="black"/>
<path d="M134.4 26.88H125.44V35.84H134.4V26.88Z" fill="black"/>
<path d="M152.32 26.88H143.36V35.84H152.32V26.88Z" fill="black"/>
<path d="M170.24 26.88H161.28V35.84H170.24V26.88Z" fill="black"/>
<path d="M188.16 26.88H179.2V35.84H188.16V26.88Z" fill="black"/>
<path d="M197.12 26.88H188.16V35.84H197.12V26.88Z" fill="black"/>
<path d="M206.08 26.88H197.12V35.84H206.08V26.88Z" fill="black"/>
<path d="M224 26.88H215.04V35.84H224V26.88Z" fill="black"/>
<path d="M8.96 35.84H0V44.8H8.96V35.84Z" fill="black"/>
<path d="M26.88 35.84H17.92V44.8H26.88V35.84Z" fill="black"/>
<path d="M35.84 35.84H26.88V44.8H35.84V35.84Z" fill="black"/>
<path d="M44.8 35.84H35.84V44.8H44.8V35.84Z" fill="black"/>
<path d="M62.72 35.84H53.76V44.8H62.72V35.84Z" fill="black"/>
<path d="M89.6 35.84H80.64V44.8H89.6V35.84Z" fill="black"/>
<path d="M125.44 35.84H116.48V44.8H125.44V35.84Z" fill="black"/>
<path d="M152.32 35.84H143.36V44.8H152.32V35.84Z" fill="black"/>
<path d="M170.24 35.84H161.28V44.8H170.24V35.84Z" fill="black"/>
<path d="M188.16 35.84H179.2V44.8H188.16V35.84Z" fill="black"/>
<path d="M197.12 35.84H188.16V44.8H197.12V35.84Z" fill="black"/>
<path d="M206.08 35.84H197.12V44.8H206.08V35.84Z" fill="black"/>
<path d="M224 35.84H215.04V44.8H224V35.84Z" fill="black"/>
<path d="M8.96 44.8H0V53.76H8.96V44.8Z" fill="black"/>
<path d="M62.72 44.8H53.76V53.76H62.72V44.8Z" fill="black"/>
<path d="M107.52 44.8H98.56V53.76H107.52V44.8Z" fill="black"/>
<path d="M116.48 44.8H107.52V53.76H116.48V44.8Z" fill="black"/>
<path d="M125.44 44.8H116.48V53.76H125.44V44.8Z" fill="black"/>
<path d="M152.32 44.8H143.36V53.76H152.32V44.8Z" fill="black"/>
<path d="M170.24 44.8H161.28V53.76H170.24V44.8Z" fill="black"/>
<path d="M224 44.8H215.04V53.76H224V44.8Z" fill="black"/>
<path d="M8.96 53.76H0V62.72H8.96V53.76Z" fill="black"/>
<path d="M17.92 53.76L8.96 53.76V62.72H17.92V53.76Z" fill="black"/>
<path d="M26.88 53.76H17.92V62.72H26.88V53.76Z" fill="black"/>
<path d="M35.84 53.76H26.88V62.72H35.84V53.76Z" fill="black"/>
<path d="M44.8 53.76H35.84V62.72H44.8V53.76Z" fill="black"/>
<path d="M53.76 53.76L44.8 53.76V62.72H53.76L53.76 53.76Z" fill="black"/>
<path d="M62.72 53.76H53.76L53.76 62.72H62.72V53.76Z" fill="black"/>
<path d="M80.64 53.76H71.68V62.72H80.64V53.76Z" fill="black"/>
<path d="M98.56 53.76L89.6 53.76V62.72H98.56V53.76Z" fill="black"/>
<path d="M116.48 53.76H107.52V62.72H116.48V53.76Z" fill="black"/>
<path d="M134.4 53.76L125.44 53.76V62.72H134.4V53.76Z" fill="black"/>
<path d="M152.32 53.76H143.36V62.72H152.32V53.76Z" fill="black"/>
<path d="M170.24 53.76H161.28V62.72H170.24V53.76Z" fill="black"/>
<path d="M179.2 53.76L170.24 53.76V62.72H179.2V53.76Z" fill="black"/>
<path d="M188.16 53.76H179.2V62.72H188.16V53.76Z" fill="black"/>
<path d="M197.12 53.76H188.16V62.72H197.12V53.76Z" fill="black"/>
<path d="M206.08 53.76H197.12V62.72H206.08V53.76Z" fill="black"/>
<path d="M215.04 53.76L206.08 53.76V62.72H215.04V53.76Z" fill="black"/>
<path d="M224 53.76H215.04V62.72H224V53.76Z" fill="black"/>
<path d="M89.6 62.72H80.64V71.68H89.6V62.72Z" fill="black"/>
<path d="M107.52 62.72H98.56V71.68H107.52V62.72Z" fill="black"/>
<path d="M125.44 62.72H116.48V71.68H125.44V62.72Z" fill="black"/>
<path d="M17.92 71.68H8.96V80.64H17.92V71.68Z" fill="black"/>
<path d="M26.88 71.68H17.92V80.64H26.88V71.68Z" fill="black"/>
<path d="M35.84 71.68H26.88V80.64H35.84V71.68Z" fill="black"/>
<path d="M62.72 71.68H53.76V80.64H62.72V71.68Z" fill="black"/>
<path d="M71.68 71.68H62.72V80.64H71.68V71.68Z" fill="black"/>
<path d="M80.64 71.68H71.68V80.64H80.64V71.68Z" fill="black"/>
<path d="M98.56 71.68H89.6V80.64H98.56V71.68Z" fill="black"/>
<path d="M134.4 71.68H125.44V80.64H134.4V71.68Z" fill="black"/>
<path d="M161.28 71.68H152.32V80.64H161.28V71.68Z" fill="black"/>
<path d="M224 71.68H215.04V80.64H224V71.68Z" fill="black"/>
<path d="M17.92 80.64H8.96V89.6H17.92V80.64Z" fill="black"/>
<path d="M26.88 80.64H17.92V89.6H26.88V80.64Z" fill="black"/>
<path d="M71.68 80.64H62.72V89.6H71.68V80.64Z" fill="black"/>
<path d="M89.6 80.64H80.64V89.6H89.6V80.64Z" fill="black"/>
<path d="M125.44 80.64H116.48V89.6H125.44V80.64Z" fill="black"/>
<path d="M134.4 80.64H125.44V89.6H134.4V80.64Z" fill="black"/>
<path d="M143.36 80.64H134.4V89.6H143.36V80.64Z" fill="black"/>
<path d="M170.24 80.64H161.28V89.6H170.24V80.64Z" fill="black"/>
<path d="M179.2 80.64H170.24V89.6H179.2V80.64Z" fill="black"/>
<path d="M188.16 80.64H179.2V89.6H188.16V80.64Z" fill="black"/>
<path d="M215.04 80.64H206.08V89.6H215.04V80.64Z" fill="black"/>
<path d="M224 80.64H215.04V89.6H224V80.64Z" fill="black"/>
<path d="M8.96 89.6H0V98.56H8.96V89.6Z" fill="black"/>
<path d="M44.8 89.6H35.84V98.56H44.8V89.6Z" fill="black"/>
<path d="M53.76 89.6H44.8V98.56H53.76V89.6Z" fill="black"/>
<path d="M62.72 89.6H53.76V98.56H62.72V89.6Z" fill="black"/>
<path d="M80.64 89.6H71.68V98.56H80.64V89.6Z" fill="black"/>
<path d="M98.56 89.6H89.6V98.56H98.56V89.6Z" fill="black"/>
<path d="M143.36 89.6H134.4L134.4 98.56H143.36V89.6Z" fill="black"/>
<path d="M152.32 89.6H143.36V98.56H152.32V89.6Z" fill="black"/>
<path d="M179.2 89.6H170.24V98.56H179.2V89.6Z" fill="black"/>
<path d="M188.16 89.6H179.2V98.56H188.16V89.6Z" fill="black"/>
<path d="M197.12 89.6H188.16V98.56H197.12V89.6Z" fill="black"/>
<path d="M215.04 89.6H206.08V98.56H215.04V89.6Z" fill="black"/>
<path d="M17.92 98.56H8.96V107.52H17.92V98.56Z" fill="black"/>
<path d="M26.88 98.56H17.92V107.52H26.88V98.56Z" fill="black"/>
<path d="M35.84 98.56H26.88V107.52H35.84V98.56Z" fill="black"/>
<path d="M71.68 98.56H62.72V107.52H71.68V98.56Z" fill="black"/>
<path d="M80.64 98.56H71.68V107.52H80.64V98.56Z" fill="black"/>
<path d="M98.56 98.56H89.6V107.52H98.56V98.56Z" fill="black"/>
<path d="M107.52 98.56H98.56V107.52H107.52V98.56Z" fill="black"/>
<path d="M134.4 98.56H125.44V107.52H134.4L134.4 98.56Z" fill="black"/>
<path d="M143.36 98.56H134.4L134.4 107.52H143.36V98.56Z" fill="black"/>
<path d="M152.32 98.56H143.36V107.52H152.32V98.56Z" fill="black"/>
<path d="M170.24 98.56H161.28V107.52H170.24V98.56Z" fill="black"/>
<path d="M206.08 98.56H197.12V107.52H206.08V98.56Z" fill="black"/>
<path d="M215.04 98.56H206.08V107.52H215.04V98.56Z" fill="black"/>
<path d="M8.96 107.52H0V116.48H8.96V107.52Z" fill="black"/>
<path d="M26.88 107.52H17.92V116.48H26.88V107.52Z" fill="black"/>
<path d="M35.84 107.52H26.88V116.48H35.84V107.52Z" fill="black"/>
<path d="M44.8 107.52H35.84V116.48H44.8V107.52Z" fill="black"/>
<path d="M62.72 107.52H53.76V116.48H62.72V107.52Z" fill="black"/>
<path d="M71.68 107.52H62.72V116.48H71.68V107.52Z" fill="black"/>
<path d="M80.64 107.52H71.68V116.48H80.64V107.52Z" fill="black"/>
<path d="M116.48 107.52H107.52V116.48H116.48V107.52Z" fill="black"/>
<path d="M134.4 107.52H125.44V116.48H134.4V107.52Z" fill="black"/>
<path d="M161.28 107.52H152.32V116.48H161.28V107.52Z" fill="black"/>
<path d="M179.2 107.52H170.24V116.48H179.2V107.52Z" fill="black"/>
<path d="M188.16 107.52H179.2V116.48H188.16V107.52Z" fill="black"/>
<path d="M206.08 107.52H197.12V116.48H206.08V107.52Z" fill="black"/>
<path d="M17.92 116.48H8.96V125.44H17.92V116.48Z" fill="black"/>
<path d="M26.88 116.48H17.92V125.44H26.88V116.48Z" fill="black"/>
<path d="M89.6 116.48H80.64V125.44H89.6V116.48Z" fill="black"/>
<path d="M98.56 116.48H89.6V125.44H98.56V116.48Z" fill="black"/>
<path d="M107.52 116.48H98.56V125.44H107.52V116.48Z" fill="black"/>
<path d="M116.48 116.48H107.52V125.44H116.48V116.48Z" fill="black"/>
<path d="M161.28 116.48H152.32V125.44H161.28V116.48Z" fill="black"/>
<path d="M179.2 116.48H170.24V125.44H179.2V116.48Z" fill="black"/>
<path d="M224 116.48H215.04V125.44H224V116.48Z" fill="black"/>
<path d="M17.92 125.44H8.96V134.4H17.92V125.44Z" fill="black"/>
<path d="M62.72 125.44H53.76V134.4H62.72V125.44Z" fill="black"/>
<path d="M71.68 125.44H62.72V134.4H71.68V125.44Z" fill="black"/>
<path d="M98.56 125.44H89.6V134.4H98.56V125.44Z" fill="black"/>
<path d="M161.28 125.44H152.32V134.4H161.28V125.44Z" fill="black"/>
<path d="M188.16 125.44H179.2V134.4H188.16V125.44Z" fill="black"/>
<path d="M197.12 125.44H188.16V134.4H197.12V125.44Z" fill="black"/>
<path d="M215.04 125.44H206.08V134.4H215.04V125.44Z" fill="black"/>
<path d="M224 125.44H215.04V134.4H224V125.44Z" fill="black"/>
<path d="M8.96 134.4L0 134.4V143.36H8.96V134.4Z" fill="black"/>
<path d="M26.88 134.4L17.92 134.4V143.36H26.88V134.4Z" fill="black"/>
<path d="M44.8 134.4H35.84V143.36H44.8V134.4Z" fill="black"/>
<path d="M53.76 134.4L44.8 134.4V143.36H53.76L53.76 134.4Z" fill="black"/>
<path d="M71.68 134.4H62.72V143.36H71.68V134.4Z" fill="black"/>
<path d="M98.56 134.4H89.6V143.36H98.56V134.4Z" fill="black"/>
<path d="M125.44 134.4H116.48V143.36H125.44V134.4Z" fill="black"/>
<path d="M134.4 134.4H125.44V143.36H134.4V134.4Z" fill="black"/>
<path d="M143.36 134.4H134.4V143.36H143.36V134.4Z" fill="black"/>
<path d="M179.2 134.4L170.24 134.4V143.36H179.2V134.4Z" fill="black"/>
<path d="M188.16 134.4H179.2V143.36H188.16V134.4Z" fill="black"/>
<path d="M197.12 134.4H188.16V143.36H197.12V134.4Z" fill="black"/>
<path d="M206.08 134.4H197.12V143.36H206.08V134.4Z" fill="black"/>
<path d="M8.96 143.36H0V152.32H8.96V143.36Z" fill="black"/>
<path d="M17.92 143.36H8.96V152.32H17.92V143.36Z" fill="black"/>
<path d="M35.84 143.36H26.88V152.32H35.84V143.36Z" fill="black"/>
<path d="M44.8 143.36H35.84V152.32H44.8V143.36Z" fill="black"/>
<path d="M62.72 143.36H53.76L53.76 152.32H62.72V143.36Z" fill="black"/>
<path d="M71.68 143.36H62.72V152.32H71.68V143.36Z" fill="black"/>
<path d="M89.6 143.36H80.64V152.32H89.6V143.36Z" fill="black"/>
<path d="M98.56 143.36H89.6V152.32H98.56V143.36Z" fill="black"/>
<path d="M107.52 143.36H98.56V152.32H107.52V143.36Z" fill="black"/>
<path d="M116.48 143.36H107.52V152.32H116.48V143.36Z" fill="black"/>
<path d="M125.44 143.36H116.48V152.32H125.44V143.36Z" fill="black"/>
<path d="M134.4 143.36H125.44V152.32H134.4V143.36Z" fill="black"/>
<path d="M152.32 143.36H143.36V152.32H152.32V143.36Z" fill="black"/>
<path d="M161.28 143.36H152.32V152.32H161.28V143.36Z" fill="black"/>
<path d="M170.24 143.36H161.28V152.32H170.24V143.36Z" fill="black"/>
<path d="M179.2 143.36H170.24V152.32H179.2V143.36Z" fill="black"/>
<path d="M188.16 143.36H179.2V152.32H188.16V143.36Z" fill="black"/>
<path d="M215.04 143.36H206.08V152.32H215.04V143.36Z" fill="black"/>
<path d="M224 143.36H215.04V152.32H224V143.36Z" fill="black"/>
<path d="M80.64 152.32H71.68V161.28H80.64V152.32Z" fill="black"/>
<path d="M98.56 152.32H89.6V161.28H98.56V152.32Z" fill="black"/>
<path d="M107.52 152.32H98.56V161.28H107.52V152.32Z" fill="black"/>
<path d="M134.4 152.32H125.44V161.28H134.4V152.32Z" fill="black"/>
<path d="M152.32 152.32H143.36V161.28H152.32V152.32Z" fill="black"/>
<path d="M188.16 152.32H179.2V161.28H188.16V152.32Z" fill="black"/>
<path d="M215.04 152.32H206.08V161.28H215.04V152.32Z" fill="black"/>
<path d="M224 152.32H215.04V161.28H224V152.32Z" fill="black"/>
<path d="M8.96 161.28H0V170.24H8.96V161.28Z" fill="black"/>
<path d="M17.92 161.28H8.96V170.24H17.92V161.28Z" fill="black"/>
<path d="M26.88 161.28H17.92V170.24H26.88V161.28Z" fill="black"/>
<path d="M35.84 161.28H26.88V170.24H35.84V161.28Z" fill="black"/>
<path d="M44.8 161.28H35.84V170.24H44.8V161.28Z" fill="black"/>
<path d="M53.76 161.28H44.8V170.24H53.76V161.28Z" fill="black"/>
<path d="M62.72 161.28H53.76V170.24H62.72V161.28Z" fill="black"/>
<path d="M80.64 161.28H71.68V170.24H80.64V161.28Z" fill="black"/>
<path d="M116.48 161.28H107.52V170.24H116.48V161.28Z" fill="black"/>
<path d="M143.36 161.28H134.4L134.4 170.24H143.36V161.28Z" fill="black"/>
<path d="M152.32 161.28H143.36V170.24H152.32V161.28Z" fill="black"/>
<path d="M170.24 161.28H161.28V170.24H170.24V161.28Z" fill="black"/>
<path d="M188.16 161.28H179.2V170.24H188.16V161.28Z" fill="black"/>
<path d="M197.12 161.28H188.16V170.24H197.12V161.28Z" fill="black"/>
<path d="M8.96 170.24H0V179.2H8.96V170.24Z" fill="black"/>
<path d="M62.72 170.24H53.76L53.76 179.2H62.72V170.24Z" fill="black"/>
<path d="M89.6 170.24H80.64V179.2H89.6V170.24Z" fill="black"/>
<path d="M98.56 170.24H89.6V179.2H98.56V170.24Z" fill="black"/>
<path d="M107.52 170.24H98.56V179.2H107.52V170.24Z" fill="black"/>
<path d="M116.48 170.24H107.52V179.2H116.48V170.24Z" fill="black"/>
<path d="M125.44 170.24H116.48V179.2H125.44V170.24Z" fill="black"/>
<path d="M152.32 170.24H143.36V179.2H152.32V170.24Z" fill="black"/>
<path d="M188.16 170.24H179.2V179.2H188.16V170.24Z" fill="black"/>
<path d="M206.08 170.24H197.12V179.2H206.08V170.24Z" fill="black"/>
<path d="M215.04 170.24H206.08V179.2H215.04V170.24Z" fill="black"/>
<path d="M224 170.24H215.04V179.2H224V170.24Z" fill="black"/>
<path d="M8.96 179.2H0V188.16H8.96V179.2Z" fill="black"/>
<path d="M26.88 179.2H17.92V188.16H26.88V179.2Z" fill="black"/>
<path d="M35.84 179.2H26.88V188.16H35.84V179.2Z" fill="black"/>
<path d="M44.8 179.2H35.84V188.16H44.8V179.2Z" fill="black"/>
<path d="M62.72 179.2H53.76V188.16H62.72V179.2Z" fill="black"/>
<path d="M89.6 179.2H80.64V188.16H89.6V179.2Z" fill="black"/>
<path d="M98.56 179.2H89.6V188.16H98.56V179.2Z" fill="black"/>
<path d="M107.52 179.2H98.56V188.16H107.52V179.2Z" fill="black"/>
<path d="M152.32 179.2H143.36V188.16H152.32V179.2Z" fill="black"/>
<path d="M161.28 179.2H152.32V188.16H161.28V179.2Z" fill="black"/>
<path d="M170.24 179.2H161.28V188.16H170.24V179.2Z" fill="black"/>
<path d="M179.2 179.2H170.24V188.16H179.2V179.2Z" fill="black"/>
<path d="M188.16 179.2H179.2V188.16H188.16V179.2Z" fill="black"/>
<path d="M215.04 179.2H206.08V188.16H215.04V179.2Z" fill="black"/>
<path d="M224 179.2H215.04V188.16H224V179.2Z" fill="black"/>
<path d="M8.96 188.16H0V197.12H8.96V188.16Z" fill="black"/>
<path d="M26.88 188.16H17.92V197.12H26.88V188.16Z" fill="black"/>
<path d="M35.84 188.16H26.88V197.12H35.84V188.16Z" fill="black"/>
<path d="M44.8 188.16H35.84V197.12H44.8V188.16Z" fill="black"/>
<path d="M62.72 188.16H53.76V197.12H62.72V188.16Z" fill="black"/>
<path d="M80.64 188.16H71.68V197.12H80.64V188.16Z" fill="black"/>
<path d="M89.6 188.16H80.64V197.12H89.6V188.16Z" fill="black"/>
<path d="M116.48 188.16H107.52V197.12H116.48V188.16Z" fill="black"/>
<path d="M125.44 188.16H116.48V197.12H125.44V188.16Z" fill="black"/>
<path d="M134.4 188.16H125.44V197.12H134.4V188.16Z" fill="black"/>
<path d="M143.36 188.16H134.4V197.12H143.36V188.16Z" fill="black"/>
<path d="M152.32 188.16H143.36V197.12H152.32V188.16Z" fill="black"/>
<path d="M161.28 188.16H152.32V197.12H161.28V188.16Z" fill="black"/>
<path d="M179.2 188.16H170.24V197.12H179.2V188.16Z" fill="black"/>
<path d="M215.04 188.16H206.08V197.12H215.04V188.16Z" fill="black"/>
<path d="M224 188.16H215.04V197.12H224V188.16Z" fill="black"/>
<path d="M8.96 197.12H0V206.08H8.96V197.12Z" fill="black"/>
<path d="M26.88 197.12H17.92V206.08H26.88V197.12Z" fill="black"/>
<path d="M35.84 197.12H26.88V206.08H35.84V197.12Z" fill="black"/>
<path d="M44.8 197.12H35.84V206.08H44.8V197.12Z" fill="black"/>
<path d="M62.72 197.12H53.76V206.08H62.72V197.12Z" fill="black"/>
<path d="M80.64 197.12H71.68V206.08H80.64V197.12Z" fill="black"/>
<path d="M89.6 197.12H80.64V206.08H89.6V197.12Z" fill="black"/>
<path d="M98.56 197.12H89.6V206.08H98.56V197.12Z" fill="black"/>
<path d="M125.44 197.12H116.48V206.08H125.44V197.12Z" fill="black"/>
<path d="M134.4 197.12H125.44V206.08H134.4V197.12Z" fill="black"/>
<path d="M143.36 197.12H134.4V206.08H143.36V197.12Z" fill="black"/>
<path d="M152.32 197.12H143.36V206.08H152.32V197.12Z" fill="black"/>
<path d="M170.24 197.12H161.28V206.08H170.24V197.12Z" fill="black"/>
<path d="M188.16 197.12H179.2V206.08H188.16V197.12Z" fill="black"/>
<path d="M197.12 197.12H188.16V206.08H197.12V197.12Z" fill="black"/>
<path d="M206.08 197.12H197.12V206.08H206.08V197.12Z" fill="black"/>
<path d="M8.96 206.08H0V215.04H8.96V206.08Z" fill="black"/>
<path d="M62.72 206.08H53.76V215.04H62.72V206.08Z" fill="black"/>
<path d="M80.64 206.08H71.68V215.04H80.64V206.08Z" fill="black"/>
<path d="M89.6 206.08H80.64V215.04H89.6V206.08Z" fill="black"/>
<path d="M98.56 206.08H89.6V215.04H98.56V206.08Z" fill="black"/>
<path d="M107.52 206.08H98.56V215.04H107.52V206.08Z" fill="black"/>
<path d="M125.44 206.08H116.48V215.04H125.44V206.08Z" fill="black"/>
<path d="M134.4 206.08H125.44V215.04H134.4V206.08Z" fill="black"/>
<path d="M143.36 206.08H134.4V215.04H143.36V206.08Z" fill="black"/>
<path d="M152.32 206.08H143.36V215.04H152.32V206.08Z" fill="black"/>
<path d="M161.28 206.08H152.32V215.04H161.28V206.08Z" fill="black"/>
<path d="M179.2 206.08H170.24V215.04H179.2V206.08Z" fill="black"/>
<path d="M188.16 206.08H179.2V215.04H188.16V206.08Z" fill="black"/>
<path d="M8.96 215.04H0V224H8.96V215.04Z" fill="black"/>
<path d="M17.92 215.04H8.96V224H17.92V215.04Z" fill="black"/>
<path d="M26.88 215.04H17.92V224H26.88V215.04Z" fill="black"/>
<path d="M35.84 215.04H26.88V224H35.84V215.04Z" fill="black"/>
<path d="M44.8 215.04H35.84V224H44.8V215.04Z" fill="black"/>
<path d="M53.76 215.04H44.8V224H53.76L53.76 215.04Z" fill="black"/>
<path d="M62.72 215.04H53.76L53.76 224H62.72V215.04Z" fill="black"/>
<path d="M98.56 215.04H89.6V224H98.56V215.04Z" fill="black"/>
<path d="M116.48 215.04H107.52V224H116.48V215.04Z" fill="black"/>
<path d="M134.4 215.04H125.44V224H134.4V215.04Z" fill="black"/>
<path d="M152.32 215.04H143.36V224H152.32V215.04Z" fill="black"/>
<path d="M170.24 215.04H161.28V224H170.24V215.04Z" fill="black"/>
<path d="M197.12 215.04H188.16V224H197.12V215.04Z" fill="black"/>
<path d="M206.08 215.04H197.12V224H206.08V215.04Z" fill="black"/>
<path d="M215.04 215.04H206.08V224H215.04V215.04Z" fill="black"/>
<path d="M224 215.04H215.04V224H224V215.04Z" fill="black"/>
</svg>
