<svg width="24" height="24" viewBox="0 0 24 24" fill="none" xmlns="http://www.w3.org/2000/svg">
<path d="M13.6254 4C13.7495 4 13.8704 4.0384 13.9707 4.10967C14.0711 4.18094 14.1456 4.28139 14.1836 4.39657L14.8285 6.34971C15.0994 6.47886 15.3586 6.624 15.606 6.78743L17.6653 6.35543C17.7867 6.33017 17.9132 6.34311 18.0266 6.3924C18.14 6.4417 18.2344 6.52479 18.2962 6.62971L19.9216 9.37143C19.9836 9.47629 20.0099 9.59766 19.9966 9.71802C19.9834 9.83839 19.9312 9.95153 19.8477 10.0411L18.4346 11.5611C18.4552 11.8526 18.4552 12.1451 18.4346 12.4366L19.8477 13.9589C19.9312 14.0485 19.9834 14.1616 19.9966 14.282C20.0099 14.4023 19.9836 14.5237 19.9216 14.6286L18.2962 17.3714C18.2342 17.4761 18.1397 17.559 18.0264 17.6081C17.913 17.6572 17.7866 17.6699 17.6653 17.6446L15.606 17.2126C15.3598 17.3749 15.0994 17.5211 14.8297 17.6503L14.1836 19.6034C14.1456 19.7186 14.0711 19.8191 13.9707 19.8903C13.8704 19.9616 13.7495 20 13.6254 20H10.3746C10.2505 20 10.1296 19.9616 10.0293 19.8903C9.92894 19.8191 9.85443 19.7186 9.81644 19.6034L9.17263 17.6514C8.90246 17.5227 8.64188 17.3757 8.39279 17.2114L6.3347 17.6446C6.21329 17.6698 6.08678 17.6569 5.9734 17.6076C5.86002 17.5583 5.76562 17.4752 5.70379 17.3703L4.07844 14.6286C4.01637 14.5237 3.99008 14.4023 4.00336 14.282C4.01664 14.1616 4.0688 14.0485 4.15232 13.9589L5.56542 12.4366C5.54495 12.1459 5.54495 11.8541 5.56542 11.5634L4.15232 10.0411C4.0688 9.95153 4.01664 9.83839 4.00336 9.71802C3.99008 9.59766 4.01637 9.47629 4.07844 9.37143L5.70379 6.62857C5.76579 6.52386 5.86026 6.441 5.97363 6.39192C6.087 6.34284 6.21341 6.33006 6.3347 6.35543L8.39279 6.78857C8.6414 6.62514 8.90174 6.47771 9.17263 6.34857L9.81761 4.39657C9.85548 4.28177 9.92964 4.18158 10.0295 4.11034C10.1293 4.03911 10.2497 4.00049 10.3735 4H13.6242H13.6254ZM13.1962 5.14286H10.8039L10.1378 7.16229L9.68862 7.376C9.46782 7.4813 9.25467 7.6012 9.05067 7.73486L8.63553 8.00914L6.50592 7.56114L5.30977 9.58171L6.76977 11.1566L6.73459 11.6411C6.71774 11.8801 6.71774 12.1199 6.73459 12.3589L6.76977 12.8434L5.30742 14.4183L6.50475 16.4389L8.63436 15.992L9.0495 16.2651C9.2535 16.3988 9.46664 16.5187 9.68744 16.624L10.1366 16.8377L10.8039 18.8571H13.1985L13.8669 16.8366L14.3149 16.624C14.5355 16.5189 14.7482 16.399 14.9517 16.2651L15.3656 15.992L17.4964 16.4389L18.6926 14.4183L17.2314 12.8434L17.2666 12.3589C17.2835 12.1195 17.2835 11.8793 17.2666 11.64L17.2314 11.1554L18.6938 9.58171L17.4964 7.56114L15.3656 8.00686L14.9517 7.73486C14.7483 7.60093 14.5355 7.48102 14.3149 7.376L13.8669 7.16343L13.1973 5.14286H13.1962ZM12 8.57143C12.9331 8.57143 13.8279 8.93265 14.4877 9.57563C15.1474 10.2186 15.5181 11.0907 15.5181 12C15.5181 12.9093 15.1474 13.7814 14.4877 14.4244C13.8279 15.0673 12.9331 15.4286 12 15.4286C11.0669 15.4286 10.1721 15.0673 9.51234 14.4244C8.85257 13.7814 8.48191 12.9093 8.48191 12C8.48191 11.0907 8.85257 10.2186 9.51234 9.57563C10.1721 8.93265 11.0669 8.57143 12 8.57143ZM12 9.71429C11.378 9.71429 10.7814 9.9551 10.3416 10.3838C9.90171 10.8124 9.65461 11.3938 9.65461 12C9.65461 12.6062 9.90171 13.1876 10.3416 13.6162C10.7814 14.0449 11.378 14.2857 12 14.2857C12.622 14.2857 13.2186 14.0449 13.6584 13.6162C14.0983 13.1876 14.3454 12.6062 14.3454 12C14.3454 11.3938 14.0983 10.8124 13.6584 10.3838C13.2186 9.9551 12.622 9.71429 12 9.71429Z" fill="#FF8500"/>
</svg>
