<svg width="16" height="16" viewBox="0 0 16 16" fill="none" xmlns="http://www.w3.org/2000/svg">
<path d="M16 0H0V16H16V0Z" fill="white"/>
<path d="M1.56 1H1V1.56H1.56V1Z" fill="black"/>
<path d="M2.12 1H1.56V1.56H2.12V1Z" fill="black"/>
<path d="M2.68 1H2.12V1.56H2.68V1Z" fill="black"/>
<path d="M3.24 1H2.68V1.56H3.24V1Z" fill="black"/>
<path d="M3.8 1H3.24V1.56H3.8V1Z" fill="black"/>
<path d="M4.36 1H3.8V1.56H4.36V1Z" fill="black"/>
<path d="M4.92 1H4.36V1.56H4.92V1Z" fill="black"/>
<path d="M6.04 1H5.48V1.56H6.04V1Z" fill="black"/>
<path d="M8.84 1H8.28V1.56H8.84V1Z" fill="black"/>
<path d="M9.4 1H8.84V1.56H9.4V1Z" fill="black"/>
<path d="M9.96 1H9.4V1.56H9.96V1Z" fill="black"/>
<path d="M10.52 1H9.96V1.56H10.52V1Z" fill="black"/>
<path d="M11.64 1H11.08V1.56H11.64V1Z" fill="black"/>
<path d="M12.2 1H11.64V1.56H12.2V1Z" fill="black"/>
<path d="M12.76 1H12.2V1.56H12.76V1Z" fill="black"/>
<path d="M13.32 1H12.76V1.56H13.32V1Z" fill="black"/>
<path d="M13.88 1H13.32V1.56H13.88V1Z" fill="black"/>
<path d="M14.44 1H13.88V1.56H14.44V1Z" fill="black"/>
<path d="M15 1H14.44V1.56H15V1Z" fill="black"/>
<path d="M1.56 1.56H1V2.12H1.56V1.56Z" fill="black"/>
<path d="M4.92 1.56H4.36V2.12H4.92V1.56Z" fill="black"/>
<path d="M6.6 1.56H6.04V2.12H6.6V1.56Z" fill="black"/>
<path d="M7.16 1.56H6.6V2.12H7.16V1.56Z" fill="black"/>
<path d="M7.72 1.56H7.16V2.12H7.72V1.56Z" fill="black"/>
<path d="M11.64 1.56H11.08V2.12H11.64V1.56Z" fill="black"/>
<path d="M15 1.56H14.44V2.12H15V1.56Z" fill="black"/>
<path d="M1.56 2.12H1V2.68H1.56V2.12Z" fill="black"/>
<path d="M2.68 2.12H2.12V2.68H2.68V2.12Z" fill="black"/>
<path d="M3.24 2.12H2.68V2.68H3.24V2.12Z" fill="black"/>
<path d="M3.8 2.12H3.24V2.68H3.8V2.12Z" fill="black"/>
<path d="M4.92 2.12H4.36V2.68H4.92V2.12Z" fill="black"/>
<path d="M6.6 2.12H6.04V2.68H6.6V2.12Z" fill="black"/>
<path d="M7.16 2.12H6.6V2.68H7.16V2.12Z" fill="black"/>
<path d="M8.28 2.12H7.72V2.68H8.28V2.12Z" fill="black"/>
<path d="M9.4 2.12H8.84V2.68H9.4V2.12Z" fill="black"/>
<path d="M9.96 2.12H9.4V2.68H9.96V2.12Z" fill="black"/>
<path d="M10.52 2.12H9.96V2.68H10.52V2.12Z" fill="black"/>
<path d="M11.64 2.12H11.08V2.68H11.64V2.12Z" fill="black"/>
<path d="M12.76 2.12H12.2V2.68H12.76V2.12Z" fill="black"/>
<path d="M13.32 2.12H12.76V2.68H13.32V2.12Z" fill="black"/>
<path d="M13.88 2.12H13.32V2.68H13.88V2.12Z" fill="black"/>
<path d="M15 2.12H14.44V2.68H15V2.12Z" fill="black"/>
<path d="M1.56 2.68H1V3.24H1.56V2.68Z" fill="black"/>
<path d="M2.68 2.68H2.12V3.24H2.68V2.68Z" fill="black"/>
<path d="M3.24 2.68H2.68V3.24H3.24V2.68Z" fill="black"/>
<path d="M3.8 2.68H3.24V3.24H3.8V2.68Z" fill="black"/>
<path d="M4.92 2.68H4.36V3.24H4.92V2.68Z" fill="black"/>
<path d="M7.16 2.68H6.6V3.24H7.16V2.68Z" fill="black"/>
<path d="M7.72 2.68H7.16V3.24H7.72V2.68Z" fill="black"/>
<path d="M8.28 2.68H7.72V3.24H8.28V2.68Z" fill="black"/>
<path d="M8.84 2.68H8.28V3.24H8.84V2.68Z" fill="black"/>
<path d="M9.4 2.68H8.84V3.24H9.4V2.68Z" fill="black"/>
<path d="M10.52 2.68H9.96V3.24H10.52V2.68Z" fill="black"/>
<path d="M11.64 2.68H11.08V3.24H11.64V2.68Z" fill="black"/>
<path d="M12.76 2.68H12.2V3.24H12.76V2.68Z" fill="black"/>
<path d="M13.32 2.68H12.76V3.24H13.32V2.68Z" fill="black"/>
<path d="M13.88 2.68H13.32V3.24H13.88V2.68Z" fill="black"/>
<path d="M15 2.68H14.44V3.24H15V2.68Z" fill="black"/>
<path d="M1.56 3.24H1V3.8H1.56V3.24Z" fill="black"/>
<path d="M2.68 3.24H2.12V3.8H2.68V3.24Z" fill="black"/>
<path d="M3.24 3.24H2.68V3.8H3.24V3.24Z" fill="black"/>
<path d="M3.8 3.24H3.24V3.8H3.8V3.24Z" fill="black"/>
<path d="M4.92 3.24H4.36V3.8H4.92V3.24Z" fill="black"/>
<path d="M6.6 3.24H6.04V3.8H6.6V3.24Z" fill="black"/>
<path d="M8.84 3.24H8.28V3.8H8.84V3.24Z" fill="black"/>
<path d="M10.52 3.24H9.96V3.8H10.52V3.24Z" fill="black"/>
<path d="M11.64 3.24H11.08V3.8H11.64V3.24Z" fill="black"/>
<path d="M12.76 3.24H12.2V3.8H12.76V3.24Z" fill="black"/>
<path d="M13.32 3.24H12.76V3.8H13.32V3.24Z" fill="black"/>
<path d="M13.88 3.24H13.32V3.8H13.88V3.24Z" fill="black"/>
<path d="M15 3.24H14.44V3.8H15V3.24Z" fill="black"/>
<path d="M1.56 3.8H1V4.36H1.56V3.8Z" fill="black"/>
<path d="M4.92 3.8H4.36V4.36H4.92V3.8Z" fill="black"/>
<path d="M7.72 3.8H7.16V4.36H7.72V3.8Z" fill="black"/>
<path d="M8.28 3.8H7.72V4.36H8.28V3.8Z" fill="black"/>
<path d="M8.84 3.8H8.28V4.36H8.84V3.8Z" fill="black"/>
<path d="M10.52 3.8H9.96V4.36H10.52V3.8Z" fill="black"/>
<path d="M11.64 3.8H11.08V4.36H11.64V3.8Z" fill="black"/>
<path d="M15 3.8H14.44V4.36H15V3.8Z" fill="black"/>
<path d="M1.56 4.36H1V4.92H1.56V4.36Z" fill="black"/>
<path d="M2.12 4.36H1.56V4.92H2.12V4.36Z" fill="black"/>
<path d="M2.68 4.36H2.12V4.92H2.68V4.36Z" fill="black"/>
<path d="M3.24 4.36H2.68V4.92H3.24V4.36Z" fill="black"/>
<path d="M3.8 4.36H3.24V4.92H3.8V4.36Z" fill="black"/>
<path d="M4.36 4.36H3.8V4.92H4.36V4.36Z" fill="black"/>
<path d="M4.92 4.36H4.36V4.92H4.92V4.36Z" fill="black"/>
<path d="M6.04 4.36H5.48V4.92H6.04V4.36Z" fill="black"/>
<path d="M7.16 4.36H6.6V4.92H7.16V4.36Z" fill="black"/>
<path d="M8.28 4.36H7.72V4.92H8.28V4.36Z" fill="black"/>
<path d="M9.4 4.36H8.84V4.92H9.4V4.36Z" fill="black"/>
<path d="M10.52 4.36H9.96V4.92H10.52V4.36Z" fill="black"/>
<path d="M11.64 4.36H11.08V4.92H11.64V4.36Z" fill="black"/>
<path d="M12.2 4.36H11.64V4.92H12.2V4.36Z" fill="black"/>
<path d="M12.76 4.36H12.2V4.92H12.76V4.36Z" fill="black"/>
<path d="M13.32 4.36H12.76V4.92H13.32V4.36Z" fill="black"/>
<path d="M13.88 4.36H13.32V4.92H13.88V4.36Z" fill="black"/>
<path d="M14.44 4.36H13.88V4.92H14.44V4.36Z" fill="black"/>
<path d="M15 4.36H14.44V4.92H15V4.36Z" fill="black"/>
<path d="M6.6 4.92H6.04V5.48H6.6V4.92Z" fill="black"/>
<path d="M7.72 4.92H7.16V5.48H7.72V4.92Z" fill="black"/>
<path d="M8.84 4.92H8.28V5.48H8.84V4.92Z" fill="black"/>
<path d="M2.12 5.48H1.56V6.04H2.12V5.48Z" fill="black"/>
<path d="M2.68 5.48H2.12V6.04H2.68V5.48Z" fill="black"/>
<path d="M3.24 5.48H2.68V6.04H3.24V5.48Z" fill="black"/>
<path d="M4.92 5.48H4.36V6.04H4.92V5.48Z" fill="black"/>
<path d="M5.48 5.48H4.92V6.04H5.48V5.48Z" fill="black"/>
<path d="M6.04 5.48H5.48V6.04H6.04V5.48Z" fill="black"/>
<path d="M7.16 5.48H6.6V6.04H7.16V5.48Z" fill="black"/>
<path d="M9.4 5.48H8.84V6.04H9.4V5.48Z" fill="black"/>
<path d="M11.08 5.48H10.52V6.04H11.08V5.48Z" fill="black"/>
<path d="M15 5.48H14.44V6.04H15V5.48Z" fill="black"/>
<path d="M2.12 6.04H1.56V6.6H2.12V6.04Z" fill="black"/>
<path d="M2.68 6.04H2.12V6.6H2.68V6.04Z" fill="black"/>
<path d="M5.48 6.04H4.92V6.6H5.48V6.04Z" fill="black"/>
<path d="M6.6 6.04H6.04V6.6H6.6V6.04Z" fill="black"/>
<path d="M8.84 6.04H8.28V6.6H8.84V6.04Z" fill="black"/>
<path d="M9.4 6.04H8.84V6.6H9.4V6.04Z" fill="black"/>
<path d="M9.96 6.04H9.4V6.6H9.96V6.04Z" fill="black"/>
<path d="M11.64 6.04H11.08V6.6H11.64V6.04Z" fill="black"/>
<path d="M12.2 6.04H11.64V6.6H12.2V6.04Z" fill="black"/>
<path d="M12.76 6.04H12.2V6.6H12.76V6.04Z" fill="black"/>
<path d="M14.44 6.04H13.88V6.6H14.44V6.04Z" fill="black"/>
<path d="M15 6.04H14.44V6.6H15V6.04Z" fill="black"/>
<path d="M1.56 6.6H1V7.16H1.56V6.6Z" fill="black"/>
<path d="M3.8 6.6H3.24V7.16H3.8V6.6Z" fill="black"/>
<path d="M4.36 6.6H3.8V7.16H4.36V6.6Z" fill="black"/>
<path d="M4.92 6.6H4.36V7.16H4.92V6.6Z" fill="black"/>
<path d="M6.04 6.6H5.48V7.16H6.04V6.6Z" fill="black"/>
<path d="M7.16 6.6H6.6V7.16H7.16V6.6Z" fill="black"/>
<path d="M9.96 6.6H9.4L9.4 7.16H9.96V6.6Z" fill="black"/>
<path d="M10.52 6.6H9.96V7.16H10.52V6.6Z" fill="black"/>
<path d="M12.2 6.6H11.64V7.16H12.2V6.6Z" fill="black"/>
<path d="M12.76 6.6H12.2V7.16H12.76V6.6Z" fill="black"/>
<path d="M13.32 6.6H12.76V7.16H13.32V6.6Z" fill="black"/>
<path d="M14.44 6.6H13.88V7.16H14.44V6.6Z" fill="black"/>
<path d="M2.12 7.16H1.56V7.72H2.12V7.16Z" fill="black"/>
<path d="M2.68 7.16H2.12V7.72H2.68V7.16Z" fill="black"/>
<path d="M3.24 7.16H2.68V7.72H3.24V7.16Z" fill="black"/>
<path d="M5.48 7.16H4.92V7.72H5.48V7.16Z" fill="black"/>
<path d="M6.04 7.16H5.48V7.72H6.04V7.16Z" fill="black"/>
<path d="M7.16 7.16H6.6V7.72H7.16V7.16Z" fill="black"/>
<path d="M7.72 7.16H7.16V7.72H7.72V7.16Z" fill="black"/>
<path d="M9.4 7.16H8.84V7.72H9.4L9.4 7.16Z" fill="black"/>
<path d="M9.96 7.16H9.4L9.4 7.72H9.96V7.16Z" fill="black"/>
<path d="M10.52 7.16H9.96V7.72H10.52V7.16Z" fill="black"/>
<path d="M11.64 7.16H11.08V7.72H11.64V7.16Z" fill="black"/>
<path d="M13.88 7.16H13.32V7.72H13.88V7.16Z" fill="black"/>
<path d="M14.44 7.16H13.88V7.72H14.44V7.16Z" fill="black"/>
<path d="M1.56 7.72H1V8.28H1.56V7.72Z" fill="black"/>
<path d="M2.68 7.72H2.12V8.28H2.68V7.72Z" fill="black"/>
<path d="M3.24 7.72H2.68V8.28H3.24V7.72Z" fill="black"/>
<path d="M3.8 7.72H3.24V8.28H3.8V7.72Z" fill="black"/>
<path d="M4.92 7.72H4.36V8.28H4.92V7.72Z" fill="black"/>
<path d="M5.48 7.72H4.92V8.28H5.48V7.72Z" fill="black"/>
<path d="M6.04 7.72H5.48V8.28H6.04V7.72Z" fill="black"/>
<path d="M8.28 7.72H7.72V8.28H8.28V7.72Z" fill="black"/>
<path d="M9.4 7.72H8.84V8.28H9.4V7.72Z" fill="black"/>
<path d="M11.08 7.72H10.52V8.28H11.08V7.72Z" fill="black"/>
<path d="M12.2 7.72H11.64V8.28H12.2V7.72Z" fill="black"/>
<path d="M12.76 7.72H12.2V8.28H12.76V7.72Z" fill="black"/>
<path d="M13.88 7.72H13.32V8.28H13.88V7.72Z" fill="black"/>
<path d="M2.12 8.28H1.56V8.84H2.12V8.28Z" fill="black"/>
<path d="M2.68 8.28H2.12V8.84H2.68V8.28Z" fill="black"/>
<path d="M6.6 8.28H6.04V8.84H6.6V8.28Z" fill="black"/>
<path d="M7.16 8.28H6.6V8.84H7.16V8.28Z" fill="black"/>
<path d="M7.72 8.28H7.16V8.84H7.72V8.28Z" fill="black"/>
<path d="M8.28 8.28H7.72V8.84H8.28V8.28Z" fill="black"/>
<path d="M11.08 8.28H10.52V8.84H11.08V8.28Z" fill="black"/>
<path d="M12.2 8.28H11.64V8.84H12.2V8.28Z" fill="black"/>
<path d="M15 8.28H14.44V8.84H15V8.28Z" fill="black"/>
<path d="M2.12 8.84H1.56V9.4H2.12V8.84Z" fill="black"/>
<path d="M4.92 8.84H4.36V9.4H4.92V8.84Z" fill="black"/>
<path d="M5.48 8.84H4.92V9.4H5.48V8.84Z" fill="black"/>
<path d="M7.16 8.84H6.6V9.4H7.16V8.84Z" fill="black"/>
<path d="M11.08 8.84H10.52V9.4H11.08V8.84Z" fill="black"/>
<path d="M12.76 8.84H12.2V9.4H12.76V8.84Z" fill="black"/>
<path d="M13.32 8.84H12.76V9.4H13.32V8.84Z" fill="black"/>
<path d="M14.44 8.84H13.88V9.4H14.44V8.84Z" fill="black"/>
<path d="M15 8.84H14.44V9.4H15V8.84Z" fill="black"/>
<path d="M1.56 9.4L1 9.4V9.96H1.56V9.4Z" fill="black"/>
<path d="M2.68 9.4L2.12 9.4V9.96H2.68V9.4Z" fill="black"/>
<path d="M3.8 9.4H3.24V9.96H3.8V9.4Z" fill="black"/>
<path d="M4.36 9.4L3.8 9.4V9.96H4.36V9.4Z" fill="black"/>
<path d="M5.48 9.4H4.92V9.96H5.48V9.4Z" fill="black"/>
<path d="M7.16 9.4H6.6V9.96H7.16V9.4Z" fill="black"/>
<path d="M8.84 9.4H8.28V9.96H8.84V9.4Z" fill="black"/>
<path d="M9.4 9.4H8.84V9.96H9.4V9.4Z" fill="black"/>
<path d="M9.96 9.4H9.4V9.96H9.96V9.4Z" fill="black"/>
<path d="M12.2 9.4L11.64 9.4V9.96H12.2V9.4Z" fill="black"/>
<path d="M12.76 9.4H12.2V9.96H12.76V9.4Z" fill="black"/>
<path d="M13.32 9.4H12.76V9.96H13.32V9.4Z" fill="black"/>
<path d="M13.88 9.4H13.32V9.96H13.88V9.4Z" fill="black"/>
<path d="M1.56 9.96H1V10.52H1.56V9.96Z" fill="black"/>
<path d="M2.12 9.96H1.56V10.52H2.12V9.96Z" fill="black"/>
<path d="M3.24 9.96H2.68V10.52H3.24V9.96Z" fill="black"/>
<path d="M3.8 9.96H3.24V10.52H3.8V9.96Z" fill="black"/>
<path d="M4.92 9.96H4.36V10.52H4.92V9.96Z" fill="black"/>
<path d="M5.48 9.96H4.92V10.52H5.48V9.96Z" fill="black"/>
<path d="M6.6 9.96H6.04V10.52H6.6V9.96Z" fill="black"/>
<path d="M7.16 9.96H6.6V10.52H7.16V9.96Z" fill="black"/>
<path d="M7.72 9.96H7.16V10.52H7.72V9.96Z" fill="black"/>
<path d="M8.28 9.96H7.72V10.52H8.28V9.96Z" fill="black"/>
<path d="M8.84 9.96H8.28V10.52H8.84V9.96Z" fill="black"/>
<path d="M9.4 9.96H8.84V10.52H9.4V9.96Z" fill="black"/>
<path d="M10.52 9.96H9.96V10.52H10.52V9.96Z" fill="black"/>
<path d="M11.08 9.96H10.52V10.52H11.08V9.96Z" fill="black"/>
<path d="M11.64 9.96H11.08V10.52H11.64V9.96Z" fill="black"/>
<path d="M12.2 9.96H11.64V10.52H12.2V9.96Z" fill="black"/>
<path d="M12.76 9.96H12.2V10.52H12.76V9.96Z" fill="black"/>
<path d="M14.44 9.96H13.88V10.52H14.44V9.96Z" fill="black"/>
<path d="M15 9.96H14.44V10.52H15V9.96Z" fill="black"/>
<path d="M6.04 10.52H5.48V11.08H6.04V10.52Z" fill="black"/>
<path d="M7.16 10.52H6.6V11.08H7.16V10.52Z" fill="black"/>
<path d="M7.72 10.52H7.16V11.08H7.72V10.52Z" fill="black"/>
<path d="M9.4 10.52H8.84V11.08H9.4V10.52Z" fill="black"/>
<path d="M10.52 10.52H9.96V11.08H10.52V10.52Z" fill="black"/>
<path d="M12.76 10.52H12.2V11.08H12.76V10.52Z" fill="black"/>
<path d="M14.44 10.52H13.88V11.08H14.44V10.52Z" fill="black"/>
<path d="M15 10.52H14.44V11.08H15V10.52Z" fill="black"/>
<path d="M1.56 11.08H1V11.64H1.56V11.08Z" fill="black"/>
<path d="M2.12 11.08H1.56V11.64H2.12V11.08Z" fill="black"/>
<path d="M2.68 11.08H2.12V11.64H2.68V11.08Z" fill="black"/>
<path d="M3.24 11.08H2.68V11.64H3.24V11.08Z" fill="black"/>
<path d="M3.8 11.08H3.24V11.64H3.8V11.08Z" fill="black"/>
<path d="M4.36 11.08H3.8V11.64H4.36V11.08Z" fill="black"/>
<path d="M4.92 11.08H4.36V11.64H4.92V11.08Z" fill="black"/>
<path d="M6.04 11.08H5.48V11.64H6.04V11.08Z" fill="black"/>
<path d="M8.28 11.08H7.72V11.64H8.28V11.08Z" fill="black"/>
<path d="M9.96 11.08H9.4L9.4 11.64H9.96V11.08Z" fill="black"/>
<path d="M10.52 11.08H9.96V11.64H10.52V11.08Z" fill="black"/>
<path d="M11.64 11.08H11.08V11.64H11.64V11.08Z" fill="black"/>
<path d="M12.76 11.08H12.2V11.64H12.76V11.08Z" fill="black"/>
<path d="M13.32 11.08H12.76V11.64H13.32V11.08Z" fill="black"/>
<path d="M1.56 11.64H1V12.2H1.56V11.64Z" fill="black"/>
<path d="M4.92 11.64H4.36V12.2H4.92V11.64Z" fill="black"/>
<path d="M6.6 11.64H6.04V12.2H6.6V11.64Z" fill="black"/>
<path d="M7.16 11.64H6.6V12.2H7.16V11.64Z" fill="black"/>
<path d="M7.72 11.64H7.16V12.2H7.72V11.64Z" fill="black"/>
<path d="M8.28 11.64H7.72V12.2H8.28V11.64Z" fill="black"/>
<path d="M8.84 11.64H8.28V12.2H8.84V11.64Z" fill="black"/>
<path d="M10.52 11.64H9.96V12.2H10.52V11.64Z" fill="black"/>
<path d="M12.76 11.64H12.2V12.2H12.76V11.64Z" fill="black"/>
<path d="M13.88 11.64H13.32V12.2H13.88V11.64Z" fill="black"/>
<path d="M14.44 11.64H13.88V12.2H14.44V11.64Z" fill="black"/>
<path d="M15 11.64H14.44V12.2H15V11.64Z" fill="black"/>
<path d="M1.56 12.2H1V12.76H1.56V12.2Z" fill="black"/>
<path d="M2.68 12.2H2.12V12.76H2.68V12.2Z" fill="black"/>
<path d="M3.24 12.2H2.68V12.76H3.24V12.2Z" fill="black"/>
<path d="M3.8 12.2H3.24V12.76H3.8V12.2Z" fill="black"/>
<path d="M4.92 12.2H4.36V12.76H4.92V12.2Z" fill="black"/>
<path d="M6.6 12.2H6.04V12.76H6.6V12.2Z" fill="black"/>
<path d="M7.16 12.2H6.6V12.76H7.16V12.2Z" fill="black"/>
<path d="M7.72 12.2H7.16V12.76H7.72V12.2Z" fill="black"/>
<path d="M10.52 12.2H9.96V12.76H10.52V12.2Z" fill="black"/>
<path d="M11.08 12.2H10.52V12.76H11.08V12.2Z" fill="black"/>
<path d="M11.64 12.2H11.08V12.76H11.64V12.2Z" fill="black"/>
<path d="M12.2 12.2H11.64V12.76H12.2V12.2Z" fill="black"/>
<path d="M12.76 12.2H12.2V12.76H12.76V12.2Z" fill="black"/>
<path d="M14.44 12.2H13.88V12.76H14.44V12.2Z" fill="black"/>
<path d="M15 12.2H14.44V12.76H15V12.2Z" fill="black"/>
<path d="M1.56 12.76H1V13.32H1.56V12.76Z" fill="black"/>
<path d="M2.68 12.76H2.12V13.32H2.68V12.76Z" fill="black"/>
<path d="M3.24 12.76H2.68V13.32H3.24V12.76Z" fill="black"/>
<path d="M3.8 12.76H3.24V13.32H3.8V12.76Z" fill="black"/>
<path d="M4.92 12.76H4.36V13.32H4.92V12.76Z" fill="black"/>
<path d="M6.04 12.76H5.48V13.32H6.04V12.76Z" fill="black"/>
<path d="M6.6 12.76H6.04V13.32H6.6V12.76Z" fill="black"/>
<path d="M8.28 12.76H7.72V13.32H8.28V12.76Z" fill="black"/>
<path d="M8.84 12.76H8.28V13.32H8.84V12.76Z" fill="black"/>
<path d="M9.4 12.76H8.84V13.32H9.4V12.76Z" fill="black"/>
<path d="M9.96 12.76H9.4V13.32H9.96V12.76Z" fill="black"/>
<path d="M10.52 12.76H9.96V13.32H10.52V12.76Z" fill="black"/>
<path d="M11.08 12.76H10.52V13.32H11.08V12.76Z" fill="black"/>
<path d="M12.2 12.76H11.64V13.32H12.2V12.76Z" fill="black"/>
<path d="M14.44 12.76H13.88V13.32H14.44V12.76Z" fill="black"/>
<path d="M15 12.76H14.44V13.32H15V12.76Z" fill="black"/>
<path d="M1.56 13.32H1V13.88H1.56V13.32Z" fill="black"/>
<path d="M2.68 13.32H2.12V13.88H2.68V13.32Z" fill="black"/>
<path d="M3.24 13.32H2.68V13.88H3.24V13.32Z" fill="black"/>
<path d="M3.8 13.32H3.24V13.88H3.8V13.32Z" fill="black"/>
<path d="M4.92 13.32H4.36V13.88H4.92V13.32Z" fill="black"/>
<path d="M6.04 13.32H5.48V13.88H6.04V13.32Z" fill="black"/>
<path d="M6.6 13.32H6.04V13.88H6.6V13.32Z" fill="black"/>
<path d="M7.16 13.32H6.6V13.88H7.16V13.32Z" fill="black"/>
<path d="M8.84 13.32H8.28V13.88H8.84V13.32Z" fill="black"/>
<path d="M9.4 13.32H8.84V13.88H9.4V13.32Z" fill="black"/>
<path d="M9.96 13.32H9.4V13.88H9.96V13.32Z" fill="black"/>
<path d="M10.52 13.32H9.96V13.88H10.52V13.32Z" fill="black"/>
<path d="M11.64 13.32H11.08V13.88H11.64V13.32Z" fill="black"/>
<path d="M12.76 13.32H12.2V13.88H12.76V13.32Z" fill="black"/>
<path d="M13.32 13.32H12.76V13.88H13.32V13.32Z" fill="black"/>
<path d="M13.88 13.32H13.32V13.88H13.88V13.32Z" fill="black"/>
<path d="M1.56 13.88H1V14.44H1.56V13.88Z" fill="black"/>
<path d="M4.92 13.88H4.36V14.44H4.92V13.88Z" fill="black"/>
<path d="M6.04 13.88H5.48V14.44H6.04V13.88Z" fill="black"/>
<path d="M6.6 13.88H6.04V14.44H6.6V13.88Z" fill="black"/>
<path d="M7.16 13.88H6.6V14.44H7.16V13.88Z" fill="black"/>
<path d="M7.72 13.88H7.16V14.44H7.72V13.88Z" fill="black"/>
<path d="M8.84 13.88H8.28V14.44H8.84V13.88Z" fill="black"/>
<path d="M9.4 13.88H8.84V14.44H9.4V13.88Z" fill="black"/>
<path d="M9.96 13.88H9.4V14.44H9.96V13.88Z" fill="black"/>
<path d="M10.52 13.88H9.96V14.44H10.52V13.88Z" fill="black"/>
<path d="M11.08 13.88H10.52V14.44H11.08V13.88Z" fill="black"/>
<path d="M12.2 13.88H11.64V14.44H12.2V13.88Z" fill="black"/>
<path d="M12.76 13.88H12.2V14.44H12.76V13.88Z" fill="black"/>
<path d="M1.56 14.44H1V15H1.56V14.44Z" fill="black"/>
<path d="M2.12 14.44H1.56V15H2.12V14.44Z" fill="black"/>
<path d="M2.68 14.44H2.12V15H2.68V14.44Z" fill="black"/>
<path d="M3.24 14.44H2.68V15H3.24V14.44Z" fill="black"/>
<path d="M3.8 14.44H3.24V15H3.8V14.44Z" fill="black"/>
<path d="M4.36 14.44H3.8V15H4.36V14.44Z" fill="black"/>
<path d="M4.92 14.44H4.36V15H4.92V14.44Z" fill="black"/>
<path d="M7.16 14.44H6.6V15H7.16V14.44Z" fill="black"/>
<path d="M8.28 14.44H7.72V15H8.28V14.44Z" fill="black"/>
<path d="M9.4 14.44H8.84V15H9.4V14.44Z" fill="black"/>
<path d="M10.52 14.44H9.96V15H10.52V14.44Z" fill="black"/>
<path d="M11.64 14.44H11.08V15H11.64V14.44Z" fill="black"/>
<path d="M13.32 14.44H12.76V15H13.32V14.44Z" fill="black"/>
<path d="M13.88 14.44H13.32V15H13.88V14.44Z" fill="black"/>
<path d="M14.44 14.44H13.88V15H14.44V14.44Z" fill="black"/>
<path d="M15 14.44H14.44V15H15V14.44Z" fill="black"/>
</svg>
